<svg width="401" height="601" xmlns="http://www.w3.org/2000/svg" fill="none">

 <g>
  <title>Layer 1</title>
  <path id="svg_1" fill="#24CB71" d="m1,501c0,-55.228 44.772,-100 100,-100l100,0l0,100c0,55.228 -44.772,100 -100,100c-55.228,0 -100,-44.772 -100,-100z"/>
  <path id="svg_2" fill="#FF7237" d="m201,1l0,200l100,0c55.228,0 100,-44.772 100,-100c0,-55.228 -44.772,-100 -100,-100l-100,0z"/>
  <circle id="svg_3" fill="#00B6FF" r="100" cy="301" cx="300.167"/>
  <path id="svg_4" fill="#FF3737" d="m1,101c0,55.228 44.772,100 100,100l100,0l0,-200l-100,0c-55.228,0 -100,44.772 -100,100z"/>
  <path id="svg_5" fill="#874FFF" d="m1,301c0,55.228 44.772,100 100,100l100,0l0,-200l-100,0c-55.228,0 -100,44.772 -100,100z"/>
 </g>
</svg>