<svg width="49" height="60" xmlns="http://www.w3.org/2000/svg" fill="none">

 <g>
  <title>Layer 1</title>
  <g id="svg_4">
   <path id="svg_2" fill="#FF4785" d="m2.30306,54.84689l-1.83867,-48.99217c-0.06072,-1.61802 1.17993,-2.98926 2.79594,-3.09028l41.67127,-2.60446c1.645,-0.1028 3.06179,1.14732 3.16447,2.79223c0.00386,0.06197 0.00594,0.12405 0.00594,0.18613l0,53.38589c0,1.64797 -1.33606,2.98403 -2.98433,2.98403c-0.04452,0 -0.08903,-0.00089 -0.13384,-0.00297l-39.8326,-1.78894c-1.55131,-0.06974 -2.78994,-1.31766 -2.84817,-2.86948z"/>
   <path id="svg_3" fill-rule="evenodd" fill="white" d="m41.65525,0.36491l-5.7351,0.35844l-0.27986,6.72646c-0.00415,0.1034 0.0276,0.20507 0.09022,0.28754c0.14868,0.19587 0.42794,0.23421 0.62381,0.08562l2.61277,-1.98201l2.20679,1.73848c0.0828,0.06514 0.18578,0.09885 0.29113,0.0952c0.24573,-0.00858 0.43803,-0.21471 0.42943,-0.46044l-0.2392,-6.8493zm-4.46373,22.52477c-1.04998,0.81553 -8.87039,1.37197 -8.87039,0.21097c0.16527,-4.43023 -1.81814,-4.62443 -2.92005,-4.62443c-1.0468,0 -2.80983,0.31645 -2.80983,2.68975c0,2.41853 2.57648,3.78389 5.6006,5.38648c4.29615,2.27659 9.49528,5.03205 9.49528,11.96521c0,6.6453 -5.39915,10.31606 -12.28605,10.31606c-7.10725,0 -13.31819,-2.87541 -12.61674,-12.84454c0.27549,-1.17046 9.31104,-0.89239 9.31104,0c-0.11019,4.11384 0.82645,5.32377 3.19551,5.32377c1.81814,0 2.64456,-1.0022 2.64456,-2.68993c0,-2.55401 -2.68447,-4.06131 -5.77264,-5.79505c-4.18144,-2.34776 -9.10297,-5.11078 -9.10297,-11.45103c0,-6.32888 4.3525,-10.54813 12.12087,-10.54813c7.76848,0 12.01083,4.15462 12.01083,12.06086z" clip-rule="evenodd"/>
  </g>
 </g>
</svg>